<?xml version="1.0" standalone="no"?><!DOCTYPE svg PUBLIC "-//W3C//DTD SVG 1.1//EN" "http://www.w3.org/Graphics/SVG/1.1/DTD/svg11.dtd"><svg t="1626440170199" class="icon" viewBox="0 0 1024 1024" version="1.1" xmlns="http://www.w3.org/2000/svg" p-id="4064" width="200" height="200" xmlns:xlink="http://www.w3.org/1999/xlink"><defs><style type="text/css"></style></defs><path d="M607.1 512H831v64H607.1zM607.1 608H831v64H607.1z" fill="#727272" p-id="4065"></path><path d="M672 384V274.7c0-45.6-38.8-82.7-86.4-82.7H480.1l0.1-127.9-224-0.1-0.1 128.1H150.4c-47.6 0-86.4 37.1-86.4 82.7v506.6c0 45.6 38.8 82.7 86.4 82.7h329.7v96H809l151-176.7V384H672zM320.1 128l96 0.1v64h-96V128z m160 672H150.4c-12.4 0-22.4-8.4-22.4-18.7V274.7c0-10.3 10-18.7 22.4-18.7h41.7l-0.1 93.9 351.9 0.2 0.1-94.1h41.6c12.4 0 22.4 8.4 22.4 18.7V384H480.1v416z m306 88.4V768H889L786.1 888.4zM896 704H722.1v192h-178V448H896v256z" fill="#727272" p-id="4066"></path></svg>